<svg width="40" height="40" viewBox="0 0 40 40" fill="none" xmlns="http://www.w3.org/2000/svg">
<rect x="0.5" y="0.5" width="39" height="39" rx="19.5" fill="#1A1A1A"/>
<path d="M17.975 25.6833C17.8166 25.6833 17.6583 25.625 17.5333 25.5L12.475 20.4417C12.2333 20.2 12.2333 19.8 12.475 19.5583L17.5333 14.5C17.775 14.2583 18.175 14.2583 18.4166 14.5C18.6583 14.7417 18.6583 15.1417 18.4166 15.3833L13.8 20L18.4166 24.6167C18.6583 24.8583 18.6583 25.2583 18.4166 25.5C18.3 25.625 18.1333 25.6833 17.975 25.6833Z" fill="#999999"/>
<path d="M27.0834 20.625H13.0583C12.7167 20.625 12.4333 20.3417 12.4333 20C12.4333 19.6583 12.7167 19.375 13.0583 19.375H27.0834C27.425 19.375 27.7084 19.6583 27.7084 20C27.7084 20.3417 27.425 20.625 27.0834 20.625Z" fill="#999999"/>
<rect x="0.5" y="0.5" width="39" height="39" rx="19.5" stroke="#333333"/>
</svg>
