<svg width="32" height="32" viewBox="0 0 32 32" fill="none" xmlns="http://www.w3.org/2000/svg">
<circle cx="16" cy="16" r="16" fill="#FF5219"/>
<path d="M23.9991 20.2456L23.8554 23.2727C23.8357 23.6847 23.4927 24.0079 23.0806 23.9999C19.6389 23.9343 16.6301 22.603 15.0058 20.4529L15.1962 22.4468C15.2339 22.8445 14.9591 23.2036 14.5659 23.2718L11.1736 23.8553C10.7364 23.9307 10.3269 23.6183 10.2838 23.1757L9.00343 9.81129C8.96842 9.44143 9.20456 9.0994 9.56282 9.00244L12.9398 8.08317C13.3977 7.95839 13.8565 8.27708 13.9005 8.74928L14.3773 13.8663C15.5904 11.2477 18.4079 9.00873 22.0327 8.02662C22.4413 7.9162 22.8624 8.15948 22.9701 8.56884L23.8509 11.8985C23.9605 12.3115 23.7091 12.7334 23.2942 12.8348C20.0538 13.6221 18.311 15.8198 18.5947 17.161C18.8425 18.3325 20.7496 19.3864 23.2583 19.4484C23.6857 19.4574 24.0197 19.8191 23.9991 20.2456Z" fill="white"/>
</svg>
